<svg id="Capa_1" enable-background="new 0 0 512 512" height="512" viewBox="0 0 512 512" width="512" xmlns="http://www.w3.org/2000/svg"><g><g><g><g><g><g><g><circle cx="256" cy="256" fill="#ffce00" r="256"/></g></g></g></g></g></g><path d="m512 256c0-12.701-.925-25.187-2.711-37.392l-77.025-77.025-7.707 12.74-43.364-43.364-33.36 178.464-178.464-178.465-105.575 265.846 126.752 126.752c20.893 5.509 42.831 8.444 65.454 8.444 141.385 0 256-114.615 256-256z" fill="#ffa300"/><g><g><path d="m130.807 110.959h38.562v52.778h-38.562z" fill="#555a66"/></g><g><path d="m342.631 110.959h38.562v52.778h-38.562z" fill="#333940"/></g></g><g><path d="m79.736 141.583h352.528v213.393h-352.528z" fill="#1dd882"/></g><g><path d="m256.121 141.583h176.143v213.393h-176.143z" fill="#2cc47f"/></g><g><path d="m63.794 333.148h384.411v43.656h-384.411z" fill="#555a66"/></g><g><path d="m256.121 333.148h192.085v43.656h-192.085z" fill="#333940"/></g><g><g fill="#fff"><path d="m130.115 296.958c-11.229-11.23-18.495-30.936-18.495-48.661s7.266-37.431 18.495-48.661l10.679 8.147c-7.706 13.101-11.009 24.881-11.009 40.514 0 15.523 3.303 27.413 11.009 40.404z"/><path d="m181.198 275.05-10.238-16.073-10.349 16.073h-18.495l18.165-27.303-17.064-25.872h18.605l9.138 14.422 9.027-14.422h18.605l-16.954 25.872 18.165 27.303z"/><path d="m233.915 254.251v21.798h-11.119v-21.798h-19.156v-10.129h19.156v-21.027h11.119v21.027h19.156v10.129z"/></g><path d="m272.44 280.665c1.211.661 2.862.991 4.183.991 3.854 0 6.275-.771 7.156-2.973l1.211-2.862-21.138-53.945h17.835l12 33.688 12.109-33.688h17.945l-24 60.77c-4.294 11.229-12.33 13.762-22.459 13.982-1.541 0-5.504-.331-7.266-.881z" fill="#e9edf5"/><path d="m324.623 288.701c7.597-12.991 10.9-24.881 10.9-40.404 0-15.633-3.303-27.413-10.9-40.514l10.679-8.147c11.23 11.229 18.496 30.936 18.496 48.661s-7.267 37.431-18.496 48.661z" fill="#e9edf5"/><path d="m362.935 228.701v-9.028c20.037-13.981 23.01-16.844 23.01-20.587 0-3.303-2.643-5.174-6.496-5.174-4.954 0-9.688 2.972-11.779 5.395l-6.386-7.927c4.954-5.395 12.44-7.376 18.496-7.376 11.119 0 18.716 5.174 18.716 14.092 0 6.386-4.734 11.78-17.396 20.697h17.726v9.909h-35.891z" fill="#e9edf5"/></g></g></svg>