<svg id="Capa_1" enable-background="new 0 0 510.574 510.574" height="512" viewBox="0 0 510.574 510.574" width="512" xmlns="http://www.w3.org/2000/svg"><g><g><g><g><path d="m218.314 278.073h165.001v29.332h-165.001z" fill="#faef93"/><path d="m218.314 278.073h21.515v29.332h-21.515z" fill="#efc17a"/><path d="m135.077 59.908-68.233 190.494h-4.353l-23.996-54.991h-30.995v7.006l54.991 134.992h4.353l91.204-246.836h345.026v-30.665z" fill="#faef93"/><g><path d="m30.496 195.411h-22.996v7.006l54.991 134.992h4.353l12.087-31.005z" fill="#efc17a"/></g><path d="m353.465 223.835-31.937-31.937 31.937-31.937-21.214-21.214-31.937 31.937-31.937-31.937-21.214 21.214 31.937 31.937-31.937 31.937 21.214 21.214 31.937-31.937 31.937 31.937z" fill="#7bdaa9"/><g><path d="m262.996 208.335-15.833 15.5 21.214 21.214 15.666-15.667z" fill="#498790"/></g><g><path d="m262.996 175.311-15.833-15.5 21.214-21.214 15.666 15.667z" fill="#498790"/></g><path d="m353.465 426.42-31.937-31.937 31.937-31.937-21.214-21.215-31.937 31.937-31.937-31.937-21.214 21.215 31.937 31.937-31.937 31.937 21.214 21.214 31.937-31.937 31.937 31.937z" fill="#f6cdc3"/><g><path d="m262.996 410.92-15.833 15.5 21.214 21.214 15.666-15.667z" fill="#e08ea2"/></g><g><path d="m262.996 377.896-15.833-15.5 21.214-21.214 15.666 15.666z" fill="#e08ea2"/></g></g></g></g><g><path d="m465.496 52.408v15h30.078v15.665h-342.751l-88.39 239.223-48.633-119.385h17.785l23.997 54.991h14.543l68.232-190.494h280.639v-15h-291.199l-65.601 183.147-20.791-47.644h-43.405v15.975l57.449 141.023h14.62l91.203-246.836h347.302v-45.665z"/><path d="m435.496 52.408h15v15h-15z"/><path d="m268.376 255.656 31.938-31.937 31.937 31.937 31.821-31.821-31.938-31.937 31.938-31.937-31.821-31.82-31.937 31.937-31.938-31.937-31.82 31.82 31.938 31.937-31.938 31.937zm-10.607-95.695 10.607-10.607 31.938 31.937 31.937-31.937 10.608 10.607-31.938 31.937 31.938 31.937-10.608 10.608-31.937-31.937-31.938 31.937-10.607-10.608 31.938-31.937z"/><path d="m332.25 330.65-31.937 31.937-31.938-31.937-31.82 31.82 31.938 31.937-31.938 31.937 31.82 31.821 31.938-31.937 31.937 31.937 31.821-31.821-31.938-31.937 31.938-31.937zm10.609 95.694-10.608 10.608-31.937-31.937-31.938 31.937-10.607-10.608 31.938-31.937-31.938-31.937 10.607-10.607 31.938 31.937 31.937-31.937 10.608 10.607-31.938 31.937z"/><path d="m255.496 299.905h15v15h-15z"/><path d="m210.814 314.905h29.682v-15h-14.682v-14.332h150v14.332h-90.318v15h105.318v-44.332h-180z"/></g></g></svg>